<svg width="64" height="32" viewBox="0 0 64 32" fill="none" xmlns="http://www.w3.org/2000/svg">
  <path d="M12 8H22C24.2091 8 26 9.79086 26 12C26 14.2091 24.2091 16 22 16H12V8Z" fill="#333333"/>
  <path d="M12 16H22C24.2091 16 26 17.7909 26 20C26 22.2091 24.2091 24 22 24H12V16Z" fill="#333333"/>
  <path d="M30 8H34V24H30V8Z" fill="#333333"/>
  <path d="M38 8H42V24H38V8Z" fill="#333333"/>
  <path d="M46 8H56V12H46V8Z" fill="#333333"/>
  <path d="M46 14H54V18H46V14Z" fill="#333333"/>
  <path d="M46 20H52V24H46V20Z" fill="#333333"/>
</svg>
